/* XPM */
static char * nica_params_bool_xpm[] = {
"32 32 32 1",
" 	c None",
".	c #000000",
"+	c #FDFF50",
"@	c #686950",
"#	c #888850",
"$	c #C0C150",
"%	c #FBFD50",
"&	c #797950",
"*	c #F5F750",
"=	c #A1A350",
"-	c #FCFE50",
";	c #E7E950",
">	c #686850",
",	c #EDEF50",
"'	c #E8EA50",
")	c #8A8B50",
"!	c #858650",
"~	c #DEE050",
"{	c #929350",
"]	c #F4F650",
"^	c #727350",
"/	c #F0F250",
"(	c #C9CB50",
"_	c #A8A950",
":	c #D5D750",
"<	c #6C6D50",
"[	c #F1F350",
"}	c #7A7B50",
"|	c #C2C350",
"1	c #A3A550",
"2	c #9A9B50",
"3	c #DCDE50",
"                                ",
"            ........            ",
"         ....++++++....         ",
"        ..++++++++++++..        ",
"      ...++++++++++++++...      ",
"     ..++++++++++++++++++..     ",
"    ..++++++++++++++++++++..    ",
"    .++++........@#$%++++++.    ",
"   ..++++...........&*+++++..   ",
"  ..+++++............=++++++..  ",
"  .++++++....++-;#...>+++++++.  ",
"  .++++++....++++,....+++++++.  ",
" ..++++++....++++,....+++++++.. ",
" .+++++++....++-')...!++++++++. ",
" .+++++++............~++++++++. ",
" .+++++++...........{]++++++++. ",
" .+++++++............^*+++++++. ",
" .+++++++....+++/(>..._+++++++. ",
" .+++++++....+++++:...<+++++++. ",
" ..++++++....+++++*....++++++.. ",
"  .++++++....+++++:....++++++.  ",
"  .++++++....+++[(>...}++++++.  ",
"  ..+++++.............|+++++..  ",
"   ..++++............1+++++..   ",
"    .++++.........^23++++++.    ",
"    ..++++++++++++++++++++..    ",
"     ..++++++++++++++++++..     ",
"      ...++++++++++++++...      ",
"        ..++++++++++++..        ",
"         ....++++++....         ",
"            ........            ",
"                                "};
