/* XPM */
static char * nica_params_ul64_xpm[] = {
"32 32 47 1",
" 	c None",
".	c #000000",
"+	c #F8C593",
"@	c #EBBD90",
"#	c #B29C87",
"$	c #131211",
"%	c #A39485",
"&	c #D7B28D",
"*	c #E5BA90",
"=	c #DDB58E",
"-	c #F5C392",
";	c #8C827A",
">	c #F1C191",
",	c #C9AA8B",
"'	c #EDBE91",
")	c #F3C392",
"!	c #D8B28D",
"~	c #A19385",
"{	c #B59E88",
"]	c #C1A58A",
"^	c #C9A98B",
"/	c #D7B18D",
"(	c #DEB68E",
"_	c #9C9084",
":	c #B9A088",
"<	c #625C56",
"[	c #AA9886",
"}	c #E9BC90",
"|	c #EEBF91",
"1	c #BEA389",
"2	c #A29385",
"3	c #9D9084",
"4	c #F7C492",
"5	c #A59585",
"6	c #C4A78A",
"7	c #E7BB90",
"8	c #E7BA90",
"9	c #D2AF8C",
"0	c #3A3734",
"a	c #AF9B87",
"b	c #E0B78F",
"c	c #B9A188",
"d	c #BDA389",
"e	c #988D83",
"f	c #F3C292",
"g	c #D1AE8C",
"h	c #BBA289",
"                                ",
"            ........            ",
"         ....++++++....         ",
"        ..++++++++++++..        ",
"      ...++++++++++++++...      ",
"     ..++++++++++++++++++..     ",
"    ..++++++++++++++++++++..    ",
"    .++++++++++++++++++++++.    ",
"   ..++++++++++++++++++++++..   ",
"  ..++@#$..%&++++++++*....++..  ",
"  .++=.......+++++++-;....+++.  ",
"  .+>...,')!~+++++++{.....+++.  ",
" ..+]..^+++++++++++/..(...+++.. ",
" .++_..:<..[}+++++|..1+...++++. ",
" .++.........}++++2.34+...++++. ",
" .++...5''5..[+++6..@++...++++. ",
" .++...7++8...+++..9+++...++++. ",
" .++0..-++-...+++...........++. ",
" .++a..7++8..$+++...........++. ",
" ..+b..5''5..c+++++++++...+++.. ",
"  .++d......ef+++++++++...+++.  ",
"  .+++g3..0hf++++++++++...+++.  ",
"  ..++++++++++++++++++++++++..  ",
"   ..++++++++++++++++++++++..   ",
"    .++++++++++++++++++++++.    ",
"    ..++++++++++++++++++++..    ",
"     ..++++++++++++++++++..     ",
"      ...++++++++++++++...      ",
"        ..++++++++++++..        ",
"         ....++++++....         ",
"            ........            ",
"                                "};
