/* XPM */
static char * nica_params_double_xpm[] = {
"32 32 34 1",
" 	c None",
".	c #000000",
"+	c #6962E9",
"@	c #383743",
"#	c #575577",
"$	c #5B5891",
"%	c #625EBE",
"&	c #6862E8",
"*	c #555368",
"=	c #625EBF",
"-	c #5E5AA4",
";	c #6861E0",
">	c #655FCF",
",	c #5F5BA8",
"'	c #434251",
")	c #615CB6",
"!	c #6862E4",
"~	c #595784",
"{	c #6862E2",
"]	c #5F5BAB",
"^	c #605CAD",
"/	c #58567F",
"(	c #6660D3",
"_	c #212127",
":	c #6862E3",
"<	c #6560D2",
"[	c #585680",
"}	c #595783",
"|	c #6861E2",
"1	c #5E5BA7",
"2	c #625EC0",
"3	c #2C2C35",
"4	c #575575",
"5	c #625DBE",
"                                ",
"            ........            ",
"         ....++++++....         ",
"        ..++++++++++++..        ",
"      ...++++++++++++++...      ",
"     ..++++++++++++++++++..     ",
"    ..++++++++++++++++++++..    ",
"    .+++.......@#$%&+++++++.    ",
"   ..+++...........*=++++++..   ",
"  ..++++.............-++++++..  ",
"  .+++++....++;>,'....)++++++.  ",
"  .+++++....+++++!~....{+++++.  ",
" ..+++++....++++++!*...]+++++.. ",
" .++++++....+++++++^.../++++++. ",
" .++++++....+++++++(..._++++++. ",
" .++++++....+++++++:....++++++. ",
" .++++++....+++++++{....++++++. ",
" .++++++....+++++++<..._++++++. ",
" .++++++....+++++++]...[++++++. ",
" ..+++++....++++++!*...]+++++.. ",
"  .+++++....+++++:}....{+++++.  ",
"  .+++++....++|>1'....)++++++.  ",
"  ..++++.............-++++++..  ",
"   ..+++...........*2++++++..   ",
"    .+++.......34$5&+++++++.    ",
"    ..++++++++++++++++++++..    ",
"     ..++++++++++++++++++..     ",
"      ...++++++++++++++...      ",
"        ..++++++++++++..        ",
"         ....++++++....         ",
"            ........            ",
"                                "};
