/* XPM */
static char * nica_params_int_xpm[] = {
"32 32 3 1",
" 	c None",
".	c #000000",
"+	c #B2FF80",
"                                ",
"            ........            ",
"         ....++++++....         ",
"        ..++++++++++++..        ",
"      ...++++++++++++++...      ",
"     ..++++++++++++++++++..     ",
"    ..++++++++++++++++++++..    ",
"    .+++++++++....+++++++++.    ",
"   ..+++++++++....+++++++++..   ",
"  ..++++++++++....++++++++++..  ",
"  .+++++++++++....+++++++++++.  ",
"  .+++++++++++....+++++++++++.  ",
" ..+++++++++++....+++++++++++.. ",
" .++++++++++++....++++++++++++. ",
" .++++++++++++....++++++++++++. ",
" .++++++++++++....++++++++++++. ",
" .++++++++++++....++++++++++++. ",
" .++++++++++++....++++++++++++. ",
" .++++++++++++....++++++++++++. ",
" ..+++++++++++....+++++++++++.. ",
"  .+++++++++++....+++++++++++.  ",
"  .+++++++++++....+++++++++++.  ",
"  ..++++++++++....++++++++++..  ",
"   ..+++++++++....+++++++++..   ",
"    .+++++++++....+++++++++.    ",
"    ..++++++++++++++++++++..    ",
"     ..++++++++++++++++++..     ",
"      ...++++++++++++++...      ",
"        ..++++++++++++..        ",
"         ....++++++....         ",
"            ........            ",
"                                "};
