/* XPM */
static char * nica_params_string_xpm[] = {
"32 32 47 1",
" 	c None",
".	c #000000",
"+	c #FF8080",
"@	c #F18080",
"#	c #BE8080",
"$	c #9C8080",
"%	c #978080",
"&	c #AB8080",
"*	c #C38080",
"=	c #D98080",
"-	c #D48080",
";	c #E58080",
">	c #A88080",
",	c #998080",
"'	c #DD8080",
")	c #F58080",
"!	c #FB8080",
"~	c #EF8080",
"{	c #D18080",
"]	c #A48080",
"^	c #ED8080",
"/	c #EB8080",
"(	c #F48080",
"_	c #A08080",
":	c #E78080",
"<	c #B28080",
"[	c #BA8080",
"}	c #D68080",
"|	c #F78080",
"1	c #AF8080",
"2	c #F38080",
"3	c #F08080",
"4	c #A68080",
"5	c #C68080",
"6	c #131111",
"7	c #4E4444",
"8	c #9F8080",
"9	c #DE8080",
"0	c #3A3333",
"a	c #FD8080",
"b	c #9A8080",
"c	c #E38080",
"d	c #CF8080",
"e	c #DB8080",
"f	c #BC8080",
"g	c #A38080",
"h	c #C08080",
"                                ",
"            ........            ",
"         ....++++++....         ",
"        ..++++++++++++..        ",
"      ...++++++++++++++...      ",
"     ..++++++++++++++++++..     ",
"    ..++++++++++++++++++++..    ",
"    .+++++++@#$....%&*=++++.    ",
"   ..++++++-...........++++..   ",
"  ..++++++;............+++++..  ",
"  .+++++++>...,')!~{]..++++++.  ",
"  .+++++++....^++++++/]++++++.  ",
" ..+++++++....(++++++++++++++.. ",
" .++++++++...._:++++++++++++++. ",
" .++++++++<......][}|+++++++++. ",
" .++++++++@..........12+++++++. ",
" .+++++++++34..........@++++++. ",
" .+++++++++++^5>6......1++++++. ",
" .+++++++++++++++){7....++++++. ",
" ..++++++++++++++++^....+++++.. ",
"  .+++++++89+++++++3....+++++.  ",
"  .+++++++..0#'2a|'b...>+++++.  ",
"  ..++++++.............c++++..  ",
"   ..+++++............d++++..   ",
"    .+++++!efg0....8h@+++++.    ",
"    ..++++++++++++++++++++..    ",
"     ..++++++++++++++++++..     ",
"      ...++++++++++++++...      ",
"        ..++++++++++++..        ",
"         ....++++++....         ",
"            ........            ",
"                                "};
