/* XPM */
static char * pack_xpm[] = {
"32 32 3 1",
" 	c None",
".	c #FF0000",
"+	c #FCFF00",
"                                ",
"                                ",
"         ...        ...         ",
"       .......    .......       ",
"     ....   ...  ...   ....     ",
"     ..       ....       ..     ",
"     ....     ....     ....     ",
"       .....   ..   .....       ",
"         ....  ..  ....         ",
"            ........            ",
"  ............................  ",
"  .+++++++++++....+++++++++++.  ",
"  .+++++++++++....+++++++++++.  ",
"  .+++++++++++....+++++++++++.  ",
"  .+++++++++++....+++++++++++.  ",
"  .+++++++++++....+++++++++++.  ",
"  .+++++++++++....+++++++++++.  ",
"  .+++++++++++....+++++++++++.  ",
"  .+++++++++++....+++++++++++.  ",
"  ............................  ",
"  ............................  ",
"  .+++++++++++....+++++++++++.  ",
"  .+++++++++++....+++++++++++.  ",
"  .+++++++++++....+++++++++++.  ",
"  .+++++++++++....+++++++++++.  ",
"  .+++++++++++....+++++++++++.  ",
"  .+++++++++++....+++++++++++.  ",
"  .+++++++++++....+++++++++++.  ",
"  .+++++++++++....+++++++++++.  ",
"  .+++++++++++....+++++++++++.  ",
"  ............................  ",
"                                "};
