/* XPM */
static char * phieta_xpm[] = {
"32 32 230 2",
"  	c None",
". 	c #182637",
"+ 	c #0D2931",
"@ 	c #1C4743",
"# 	c #002200",
"$ 	c #122516",
"% 	c #054800",
"& 	c #016108",
"* 	c #016B24",
"= 	c #027D3F",
"- 	c #008162",
"; 	c #0D3700",
"> 	c #286600",
", 	c #228603",
"' 	c #169B02",
") 	c #017D06",
"! 	c #029732",
"~ 	c #04AF63",
"{ 	c #03856F",
"] 	c #199193",
"^ 	c #2D7501",
"/ 	c #419302",
"( 	c #2A9E02",
"_ 	c #139504",
": 	c #039F08",
"< 	c #03982B",
"[ 	c #02A552",
"} 	c #018466",
"| 	c #03A09A",
"1 	c #007594",
"2 	c #001B0E",
"3 	c #0A5301",
"4 	c #169001",
"5 	c #2BA501",
"6 	c #169403",
"7 	c #0DA105",
"8 	c #05A917",
"9 	c #039635",
"0 	c #04AC54",
"a 	c #008264",
"b 	c #00A49C",
"c 	c #0184A3",
"d 	c #035A91",
"e 	c #03459B",
"f 	c #024D37",
"g 	c #002D19",
"h 	c #027207",
"i 	c #149402",
"j 	c #14A004",
"k 	c #088A05",
"l 	c #03B412",
"m 	c #059B29",
"n 	c #02A445",
"o 	c #029E58",
"p 	c #069779",
"q 	c #830000",
"r 	c #79050A",
"s 	c #41090C",
"t 	c #0057BD",
"u 	c #012083",
"v 	c #2232AB",
"w 	c #143847",
"x 	c #017E29",
"y 	c #00970C",
"z 	c #00CD0E",
"A 	c #04A01B",
"B 	c #039230",
"C 	c #01A941",
"D 	c #02AA5C",
"E 	c #01885C",
"F 	c #04C9A9",
"G 	c #0A5653",
"H 	c #810300",
"I 	c #8F0000",
"J 	c #8A0000",
"K 	c #031F79",
"L 	c #000CA5",
"M 	c #0B088B",
"N 	c #30139C",
"O 	c #003048",
"P 	c #035F56",
"Q 	c #01924B",
"R 	c #058F3A",
"S 	c #01C744",
"T 	c #03C74E",
"U 	c #06AB55",
"V 	c #03A65A",
"W 	c #078E62",
"X 	c #03BD9E",
"Y 	c #037B76",
"Z 	c #02B1B5",
"` 	c #1B3424",
" .	c #943300",
"..	c #B61B00",
"+.	c #991500",
"@.	c #2D1961",
"#.	c #100787",
"$.	c #1E0196",
"%.	c #19017C",
"&.	c #00856B",
"*.	c #059660",
"=.	c #02A85C",
"-.	c #0AC57C",
";.	c #07AA7F",
">.	c #01CFA7",
",.	c #048A7A",
"'.	c #03A39E",
").	c #059EA4",
"!.	c #03789F",
"~.	c #016489",
"{.	c #264402",
"].	c #B7A603",
"^.	c #D38D04",
"/.	c #9A6703",
"(.	c #514D35",
"_.	c #1C0081",
":.	c #1B0182",
"<.	c #1E0194",
"[.	c #009B82",
"}.	c #06B3A2",
"|.	c #059C94",
"1.	c #01BDB8",
"2.	c #06B8C8",
"3.	c #027998",
"4.	c #057DA6",
"5.	c #05628E",
"6.	c #0060AB",
"7.	c #046686",
"8.	c #0F7209",
"9.	c #6FC106",
"0.	c #85AB03",
"a.	c #A3CF04",
"b.	c #2F600E",
"c.	c #0C058C",
"d.	c #1B0184",
"e.	c #1B0183",
"f.	c #22037E",
"g.	c #1E007E",
"h.	c #00768E",
"i.	c #027492",
"j.	c #058ABC",
"k.	c #0668A5",
"l.	c #006AB7",
"m.	c #054E95",
"n.	c #004797",
"o.	c #065495",
"p.	c #054C59",
"q.	c #048A40",
"r.	c #13B90C",
"s.	c #219307",
"t.	c #31C00A",
"u.	c #0A7A09",
"v.	c #031344",
"w.	c #0B087D",
"x.	c #17016F",
"y.	c #19017A",
"z.	c #1C0183",
"A.	c #190082",
"B.	c #2D1B82",
"C.	c #0F689E",
"D.	c #045C9F",
"E.	c #024592",
"F.	c #0237A1",
"G.	c #0233A7",
"H.	c #032994",
"I.	c #02279A",
"J.	c #012F9D",
"K.	c #045E89",
"L.	c #06AC94",
"M.	c #048146",
"N.	c #01AB3B",
"O.	c #05B738",
"P.	c #05A64B",
"Q.	c #034F5B",
"R.	c #021167",
"S.	c #07087B",
"T.	c #12077A",
"U.	c #00005A",
"V.	c #002BA9",
"W.	c #022191",
"X.	c #021496",
"Y.	c #010E91",
"Z.	c #000B8F",
"`.	c #000B93",
" +	c #02188C",
".+	c #04429B",
"++	c #0279A3",
"@+	c #04A5A7",
"#+	c #05B494",
"$+	c #04A07D",
"%+	c #04C3AF",
"&+	c #015D7A",
"*+	c #003676",
"=+	c #293B75",
"-+	c #090FB2",
";+	c #120AA1",
">+	c #1C05A1",
",+	c #1B0898",
"'+	c #100790",
")+	c #020E98",
"!+	c #031E8D",
"~+	c #044CAB",
"{+	c #0368A2",
"]+	c #0482AE",
"^+	c #0397BB",
"/+	c #036B8D",
"(+	c #190179",
"_+	c #1E0096",
":+	c #1D008A",
"<+	c #150685",
"[+	c #010C90",
"}+	c #041586",
"|+	c #012BA7",
"1+	c #024B95",
"2+	c #135D9C",
"3+	c #2C1295",
"4+	c #190072",
"5+	c #1B017D",
"6+	c #1D018F",
"7+	c #180381",
"8+	c #010C85",
"9+	c #001580",
"0+	c #3B178C",
"a+	c #290275",
"b+	c #1A017F",
"c+	c #1E0294",
"d+	c #020C85",
"e+	c #3C2692",
"f+	c #180175",
"g+	c #110F74",
"                                                                ",
"                                                                ",
"                                                                ",
"                                                                ",
"                                                                ",
"                                                                ",
"                                                                ",
"                                  . + @                         ",
"                            # $ % & * = -                       ",
"                        # ; > , ' ) ! ~ { ]                     ",
"                    # # ^ / ( _ : < [ } | 1 ]                   ",
"                  2 3 4 5 6 7 8 9 0 a b c d e                   ",
"              f g h i j k l m n o p q r s t u v                 ",
"            w f x y z A B C D E F G H I J K L M N               ",
"          O P Q R S T U V W X Y Z `  ...+.@.#.$.%.N             ",
"          &.&.*.=.-.;.>.,.'.).!.~.{.].^./.(._.:.$.<.N           ",
"              [.}.|.1.2.3.4.5.6.7.8.9.0.a.b.c.d.e.f.g.N         ",
"              1.h.i.j.k.l.m.n.o.p.q.r.s.t.u.v.w.x.y.z.A.B.      ",
"                C.D.E.F.G.H.I.J.K.L.M.N.O.P.Q.R.S.T.U.N         ",
"                  V.W.X.Y.Z.`. +.+++@+#+$+%+&+*+=+N             ",
"                  N -+;+>+,+'+)+!+~+{+]+^+/+N                   ",
"                    N (+e._+:+<+[+}+|+1+2+                      ",
"                      3+4+5+6+d.7+8+9+N                         ",
"                        0+a+b+6+c+d+N                           ",
"                          e+:.f+g+                              ",
"                            N N                                 ",
"                                                                ",
"                                                                ",
"                                                                ",
"                                                                ",
"                                                                ",
"                                                                "};
