/* XPM */
static char * qa_report_xpm[] = {
"32 32 5 1",
" 	c None",
".	c #000000",
"+	c #5F4646",
"@	c #FFFFFF",
"#	c #337B3D",
"                                ",
"         ..............         ",
"        ................        ",
"        .++++++++++++++.        ",
"      ...++++++++++++++...      ",
"     .@@.++++++++++++++.@@.     ",
"    .@@@................@@@.    ",
"   .@@@@@@@@@@@@@@@@@@@@@@@@.   ",
"   .@@@@@@@@@@@@@@@@@@@@@@@@.   ",
"   .@@@@@@@@@@@@@@@@@@@@@@@@.   ",
"   .@@@@@......@@@@...@@@@@@.   ",
"   .@@@@........@@..@..@@@@@.   ",
"   .@@@@..@@@@..@@..@..@@@@@.   ",
"   .@@@@..@@@@..@..@@@..@@@@.   ",
"   .@@@@..@@@@..@.......@@@@.   ",
"   .@@@@..@@@@..@.......@@@@.   ",
"   .@@@@..@@@@..@..@@@..@@@@.   ",
"   .@@@@........@..@@@..@@@@.   ",
"   .@@@@@......@@..@@@..@@@@.   ",
"   .@@@@@@@@@@@@@@@@@@@@@@@@.   ",
"   .@@@@@@@@@@@@@@@@@@@@@@@@.   ",
"   .@@@@@@@@@@@@@@@@@@@@@@@@.   ",
"   .@@@@@@@@@@@@@##@....@@@@.   ",
"   .@@@@@......@##@@@@@@@@@@.   ",
"   .@@@@@.@@@@.##@@@....@@@@.   ",
"   .@@@@##@@@@##@@@@@@@@@@@@.   ",
"   .@@@@@##@@##@@@@@....@@@@.   ",
"   .@@@@@.####.@@@@@@@@@@@@@.   ",
"    .@@@@..##..@@@@@....@@@.    ",
"     .@@@@@@@@@@@@@@@@@@@@.     ",
"      ....................      ",
"                                "};
