/* XPM */
static char * nica_params_bool_xpm[] = {
"32 32 12 1",
" 	c None",
".	c #FCFF00",
"+	c #2319DE",
"@	c #D3D429",
"#	c #14F403",
"$	c #FF0000",
"%	c #40C703",
"&	c #5BAA02",
"*	c #D72901",
"=	c #40C602",
"-	c #DD2400",
";	c #000000",
"                                ",
"                                ",
"                        .       ",
"     ++++              ....     ",
"     ++++++         .......     ",
"     +++++++        .......     ",
"     +++++++++    .........     ",
"     +++++++++    .........     ",
"      +++++++++   ........      ",
"       ++++++++  ........       ",
"       +++++++++@........       ",
"         +++++++........        ",
"           +++++.......         ",
"            ++++.....           ",
"            ####$$$$            ",
"          ######$$$$$           ",
"        #######%$$$$$$$         ",
"       ########&*$$$$$$$$       ",
"      #########=-$$$$$$$$       ",
"       #######    $$$$$$$       ",
"   ;;;;#;;##;;    ;;;;;;$;;;;;  ",
"  ;;;;;#;;##;;    ;;;;;;$;;;;;  ",
"  ;  ###;;##;;    ;;$$$$$;;     ",
"  ;;;;##;;;;;;    ;;  $$$;;;;   ",
"   ;;;;#;;;;;;    ;;   $$;;;;   ",
"      ; ;;  ;;    ;;     ;;     ",
"  ;;;;; ;;  ;;    ;;;;;; ;;     ",
"  ;;;;  ;;  ;;    ;;;;;; ;;     ",
"                                ",
"                                ",
"                                ",
"                                "};
